<svg width="1600" height="900" viewBox="0 0 1600 900" fill="none" xmlns="http://www.w3.org/2000/svg">
  <rect width="1600" height="900" fill="#06080D"/>
  <circle cx="1240" cy="170" r="220" fill="url(#paint0_radial)" fill-opacity="0.45"/>
  <circle cx="360" cy="220" r="260" fill="url(#paint1_radial)" fill-opacity="0.24"/>
  <path d="M176 710C388 602 577 536 743 512C994 475 1175 514 1424 658" stroke="url(#paint2_linear)" stroke-width="2" stroke-opacity="0.55"/>
  <path d="M236 768C467 620 646 558 819 546C1024 532 1187 570 1384 686" stroke="url(#paint3_linear)" stroke-width="1.5" stroke-opacity="0.35"/>
  <g opacity="0.35">
    <path d="M0 105H1600" stroke="white" stroke-opacity="0.08"/>
    <path d="M0 225H1600" stroke="white" stroke-opacity="0.08"/>
    <path d="M0 345H1600" stroke="white" stroke-opacity="0.08"/>
    <path d="M0 465H1600" stroke="white" stroke-opacity="0.08"/>
    <path d="M0 585H1600" stroke="white" stroke-opacity="0.08"/>
    <path d="M0 705H1600" stroke="white" stroke-opacity="0.08"/>
    <path d="M0 825H1600" stroke="white" stroke-opacity="0.08"/>
    <path d="M145 0V900" stroke="white" stroke-opacity="0.08"/>
    <path d="M385 0V900" stroke="white" stroke-opacity="0.08"/>
    <path d="M625 0V900" stroke="white" stroke-opacity="0.08"/>
    <path d="M865 0V900" stroke="white" stroke-opacity="0.08"/>
    <path d="M1105 0V900" stroke="white" stroke-opacity="0.08"/>
    <path d="M1345 0V900" stroke="white" stroke-opacity="0.08"/>
  </g>
  <defs>
    <radialGradient id="paint0_radial" cx="0" cy="0" r="1" gradientUnits="userSpaceOnUse" gradientTransform="translate(1240 170) rotate(90) scale(220)">
      <stop stop-color="#6EA6FF"/>
      <stop offset="1" stop-color="#6EA6FF" stop-opacity="0"/>
    </radialGradient>
    <radialGradient id="paint1_radial" cx="0" cy="0" r="1" gradientUnits="userSpaceOnUse" gradientTransform="translate(360 220) rotate(90) scale(260)">
      <stop stop-color="#C9AB6F"/>
      <stop offset="1" stop-color="#C9AB6F" stop-opacity="0"/>
    </radialGradient>
    <linearGradient id="paint2_linear" x1="176" y1="710" x2="1424" y2="658" gradientUnits="userSpaceOnUse">
      <stop stop-color="#4EDCE6" stop-opacity="0"/>
      <stop offset="0.5" stop-color="#4EDCE6"/>
      <stop offset="1" stop-color="#6EA6FF" stop-opacity="0"/>
    </linearGradient>
    <linearGradient id="paint3_linear" x1="236" y1="768" x2="1384" y2="686" gradientUnits="userSpaceOnUse">
      <stop stop-color="#6EA6FF" stop-opacity="0"/>
      <stop offset="0.55" stop-color="#C9AB6F"/>
      <stop offset="1" stop-color="#C9AB6F" stop-opacity="0"/>
    </linearGradient>
  </defs>
</svg>
