<svg width="900" height="1120" viewBox="0 0 900 1120" fill="none" xmlns="http://www.w3.org/2000/svg">
  <rect width="900" height="1120" fill="#090D14"/>
  <circle cx="677" cy="174" r="220" fill="url(#paint0_radial)" fill-opacity="0.55"/>
  <circle cx="263" cy="276" r="190" fill="url(#paint1_radial)" fill-opacity="0.28"/>
  <path d="M195 905C225 762 272 672 336 637C381 612 431 610 486 630C564 659 628 740 679 874" fill="url(#paint2_linear)" fill-opacity="0.9"/>
  <path d="M278 423C278 334.664 349.664 263 438 263H466C554.336 263 626 334.664 626 423V514C626 602.336 554.336 674 466 674H438C349.664 674 278 602.336 278 514V423Z" fill="url(#paint3_linear)"/>
  <path d="M358 391C358 334.667 403.667 289 460 289C516.333 289 562 334.667 562 391V457C562 513.333 516.333 559 460 559C403.667 559 358 513.333 358 457V391Z" fill="#121A27"/>
  <path d="M330 437C330 380.114 376.114 334 433 334H487C543.886 334 590 380.114 590 437V496C590 552.886 543.886 599 487 599H433C376.114 599 330 552.886 330 496V437Z" fill="#C3C8CF"/>
  <path d="M380 422C380 392.176 404.176 368 434 368H484C513.824 368 538 392.176 538 422V447C538 476.824 513.824 501 484 501H434C404.176 501 380 476.824 380 447V422Z" fill="#0E131C"/>
  <path d="M257 958C321 842 398 784 487 785C566 786 642 844 716 958" stroke="rgba(255,255,255,0.32)" stroke-width="1.5"/>
  <g opacity="0.32">
    <path d="M0 162H900" stroke="white" stroke-opacity="0.08"/>
    <path d="M0 322H900" stroke="white" stroke-opacity="0.08"/>
    <path d="M0 482H900" stroke="white" stroke-opacity="0.08"/>
    <path d="M0 642H900" stroke="white" stroke-opacity="0.08"/>
    <path d="M0 802H900" stroke="white" stroke-opacity="0.08"/>
    <path d="M0 962H900" stroke="white" stroke-opacity="0.08"/>
    <path d="M150 0V1120" stroke="white" stroke-opacity="0.08"/>
    <path d="M310 0V1120" stroke="white" stroke-opacity="0.08"/>
    <path d="M470 0V1120" stroke="white" stroke-opacity="0.08"/>
    <path d="M630 0V1120" stroke="white" stroke-opacity="0.08"/>
    <path d="M790 0V1120" stroke="white" stroke-opacity="0.08"/>
  </g>
  <defs>
    <radialGradient id="paint0_radial" cx="0" cy="0" r="1" gradientUnits="userSpaceOnUse" gradientTransform="translate(677 174) rotate(90) scale(220)">
      <stop stop-color="#6EA6FF"/>
      <stop offset="1" stop-color="#6EA6FF" stop-opacity="0"/>
    </radialGradient>
    <radialGradient id="paint1_radial" cx="0" cy="0" r="1" gradientUnits="userSpaceOnUse" gradientTransform="translate(263 276) rotate(90) scale(190)">
      <stop stop-color="#C9AB6F"/>
      <stop offset="1" stop-color="#C9AB6F" stop-opacity="0"/>
    </radialGradient>
    <linearGradient id="paint2_linear" x1="241" y1="785" x2="663" y2="936" gradientUnits="userSpaceOnUse">
      <stop stop-color="#111722"/>
      <stop offset="0.52" stop-color="#28384D"/>
      <stop offset="1" stop-color="#0D141E"/>
    </linearGradient>
    <linearGradient id="paint3_linear" x1="278" y1="263" x2="626" y2="674" gradientUnits="userSpaceOnUse">
      <stop stop-color="#1A212D"/>
      <stop offset="1" stop-color="#0A0F17"/>
    </linearGradient>
  </defs>
</svg>
