<svg width="1200" height="900" viewBox="0 0 1200 900" fill="none" xmlns="http://www.w3.org/2000/svg">
  <rect width="1200" height="900" rx="36" fill="#070B11"/>
  <rect x="86" y="104" width="1028" height="692" rx="28" fill="url(#paint0_linear)"/>
  <rect x="136" y="154" width="330" height="510" rx="24" fill="#0F1622"/>
  <rect x="502" y="154" width="562" height="252" rx="24" fill="#0E141F"/>
  <rect x="502" y="442" width="271" height="222" rx="24" fill="#0E141F"/>
  <rect x="793" y="442" width="271" height="222" rx="24" fill="#0E141F"/>
  <circle cx="298" cy="298" r="96" fill="url(#paint1_radial)"/>
  <path d="M212 514C248 458 307 424 389 412" stroke="#4EDCE6" stroke-width="2" stroke-opacity="0.56"/>
  <path d="M544 235H968" stroke="white" stroke-opacity="0.12"/>
  <path d="M544 273H1024" stroke="white" stroke-opacity="0.08"/>
  <path d="M544 311H864" stroke="white" stroke-opacity="0.08"/>
  <path d="M544 523H720" stroke="white" stroke-opacity="0.12"/>
  <path d="M544 562H735" stroke="white" stroke-opacity="0.08"/>
  <path d="M835 523H1011" stroke="white" stroke-opacity="0.12"/>
  <path d="M835 562H1026" stroke="white" stroke-opacity="0.08"/>
  <path d="M185 746C345 667 515 628 695 629C849 630 982 660 1094 720" stroke="url(#paint2_linear)" stroke-width="2" stroke-opacity="0.42"/>
  <defs>
    <linearGradient id="paint0_linear" x1="86" y1="104" x2="1114" y2="796" gradientUnits="userSpaceOnUse">
      <stop stop-color="#0D121C"/>
      <stop offset="0.56" stop-color="#09111A"/>
      <stop offset="1" stop-color="#101722"/>
    </linearGradient>
    <radialGradient id="paint1_radial" cx="0" cy="0" r="1" gradientUnits="userSpaceOnUse" gradientTransform="translate(298 298) rotate(90) scale(96)">
      <stop stop-color="#6EA6FF"/>
      <stop offset="1" stop-color="#6EA6FF" stop-opacity="0"/>
    </radialGradient>
    <linearGradient id="paint2_linear" x1="185" y1="746" x2="1094" y2="720" gradientUnits="userSpaceOnUse">
      <stop stop-color="#4EDCE6" stop-opacity="0"/>
      <stop offset="0.5" stop-color="#C9AB6F"/>
      <stop offset="1" stop-color="#6EA6FF" stop-opacity="0"/>
    </linearGradient>
  </defs>
</svg>
