<svg width="1200" height="900" viewBox="0 0 1200 900" fill="none" xmlns="http://www.w3.org/2000/svg">
  <rect width="1200" height="900" rx="36" fill="#070C12"/>
  <rect x="130" y="166" width="940" height="548" rx="32" fill="url(#paint0_linear)"/>
  <rect x="192" y="254" width="188" height="372" rx="26" fill="#0D141E"/>
  <rect x="425" y="254" width="350" height="160" rx="26" fill="#101824"/>
  <rect x="425" y="466" width="350" height="160" rx="26" fill="#101824"/>
  <rect x="820" y="254" width="188" height="372" rx="26" fill="#0D141E"/>
  <path d="M380 440H425" stroke="#4EDCE6" stroke-width="2" stroke-opacity="0.68"/>
  <path d="M775 440H820" stroke="#C9AB6F" stroke-width="2" stroke-opacity="0.68"/>
  <path d="M251 345H322" stroke="white" stroke-opacity="0.12"/>
  <path d="M251 383H341" stroke="white" stroke-opacity="0.08"/>
  <path d="M251 421H304" stroke="white" stroke-opacity="0.08"/>
  <path d="M476 323H685" stroke="white" stroke-opacity="0.12"/>
  <path d="M476 361H723" stroke="white" stroke-opacity="0.08"/>
  <path d="M476 535H691" stroke="white" stroke-opacity="0.12"/>
  <path d="M476 573H651" stroke="white" stroke-opacity="0.08"/>
  <circle cx="914" cy="327" r="68" fill="url(#paint1_radial)"/>
  <path d="M221 712C422 626 620 614 814 674C886 696 963 732 1044 782" stroke="url(#paint2_linear)" stroke-width="2" stroke-opacity="0.42"/>
  <defs>
    <linearGradient id="paint0_linear" x1="130" y1="166" x2="1070" y2="714" gradientUnits="userSpaceOnUse">
      <stop stop-color="#0F151E"/>
      <stop offset="0.58" stop-color="#0A1018"/>
      <stop offset="1" stop-color="#101720"/>
    </linearGradient>
    <radialGradient id="paint1_radial" cx="0" cy="0" r="1" gradientUnits="userSpaceOnUse" gradientTransform="translate(914 327) rotate(90) scale(68)">
      <stop stop-color="#6EA6FF"/>
      <stop offset="1" stop-color="#6EA6FF" stop-opacity="0"/>
    </radialGradient>
    <linearGradient id="paint2_linear" x1="221" y1="712" x2="1044" y2="782" gradientUnits="userSpaceOnUse">
      <stop stop-color="#4EDCE6" stop-opacity="0"/>
      <stop offset="0.5" stop-color="#4EDCE6"/>
      <stop offset="1" stop-color="#C9AB6F" stop-opacity="0"/>
    </linearGradient>
  </defs>
</svg>
